<?xml version="1.0" standalone="no"?>
<!DOCTYPE svg PUBLIC "-//W3C//DTD SVG 20010904//EN"
 "http://www.w3.org/TR/2001/REC-SVG-20010904/DTD/svg10.dtd">
<svg version="1.0" xmlns="http://www.w3.org/2000/svg"
 width="599.000000pt" height="390.000000pt" viewBox="0 0 599.000000 390.000000"
 preserveAspectRatio="xMidYMid meet">
<metadata>
Created by potrace 1.16, written by Peter Selinger 2001-2019
</metadata>
<g transform="translate(0.000000,390.000000) scale(0.100000,-0.100000)"
fill="#000000" stroke="none">
<path d="M0 3754 c0 -113 3 -144 13 -140 63 26 331 106 343 102 12 -4 14 -50
14 -276 0 -209 3 -270 13 -270 29 0 241 70 248 82 5 7 9 135 9 285 l0 272 88
26 c48 14 112 34 142 45 l55 18 -462 1 -463 1 0 -146z"/>
<path d="M981 3843 c5 -32 6 -193 3 -358 -5 -246 -4 -303 7 -312 8 -6 181 -56
384 -112 378 -102 507 -142 531 -162 8 -7 14 -31 14 -56 l0 -45 -47 7 c-77 10
-358 72 -626 136 -136 32 -252 59 -257 59 -15 0 -12 -106 3 -118 6 -5 91 -19
187 -31 179 -22 691 -98 723 -107 13 -4 17 -16 17 -55 l0 -49 -39 0 c-58 0
-372 27 -645 55 -132 14 -243 22 -248 17 -4 -4 -9 -523 -10 -1152 -2 -805 -6
-1144 -14 -1147 -10 -3 -379 384 -709 747 -93 102 -188 206 -212 232 l-43 47
0 -719 0 -720 698 1 c657 0 694 1 648 16 -70 24 -146 97 -181 174 -69 154 -34
375 78 496 70 76 200 99 387 69 l75 -12 3 -39 c4 -59 -11 -158 -25 -162 -7 -3
-17 13 -23 39 -18 63 -82 124 -142 133 -230 35 -366 -230 -249 -481 87 -185
294 -246 378 -111 54 88 51 84 63 67 11 -16 6 -83 -11 -137 -9 -29 -14 -32
-72 -41 -40 -6 707 -10 2151 -11 l2212 -1 0 28 c0 27 -1 27 -63 27 -56 0 -68
4 -112 36 -28 19 -86 76 -130 126 l-80 92 -3 -96 c-3 -100 5 -123 39 -123 11
0 19 -7 19 -15 0 -12 -17 -15 -95 -15 -74 0 -95 3 -95 14 0 7 9 16 20 19 19 5
20 14 20 245 l0 240 -25 6 c-14 4 -25 14 -25 23 0 14 12 15 90 11 85 -5 121
-15 92 -25 -34 -12 -42 -35 -42 -116 l0 -81 56 54 c79 77 113 126 106 152 -5
20 -3 21 43 15 26 -4 63 -7 81 -7 45 0 43 -12 -5 -34 -24 -10 -76 -56 -131
-113 l-90 -95 79 -87 c122 -133 193 -191 232 -191 18 0 19 54 19 1905 l0 1905
-2508 0 -2509 0 8 -57z m1827 -105 c26 -53 53 -149 77 -277 20 -104 146 -495
210 -651 90 -220 192 -404 273 -490 l47 -50 75 61 c172 139 400 270 444 253
27 -10 72 -95 151 -287 86 -208 133 -288 155 -262 27 32 54 17 156 -87 55 -57
128 -139 161 -183 69 -90 220 -241 333 -333 81 -65 297 -198 395 -242 78 -36
96 -66 98 -165 2 -88 -13 -115 -89 -157 -46 -26 -57 -28 -177 -28 -114 0 -144
4 -270 36 -78 19 -173 45 -211 56 -101 30 -151 22 -346 -55 -91 -36 -198 -75
-238 -88 -65 -21 -74 -22 -88 -7 -11 11 -14 25 -8 52 9 50 88 126 217 213 54
36 121 85 148 109 l50 44 -28 12 c-15 6 -74 38 -131 71 -56 33 -119 63 -138
67 -54 12 -115 -7 -428 -136 -219 -91 -292 -117 -331 -118 l-50 -1 -3 42 c-2
22 3 56 11 75 15 35 175 214 402 448 l140 144 -55 9 c-85 14 -83 12 -78 65 3
31 17 66 40 102 67 105 126 239 111 254 -14 14 -364 -238 -733 -529 -560 -442
-1034 -774 -1008 -706 2 5 38 36 80 70 76 60 375 342 680 640 l158 154 -45 48
c-53 57 -174 238 -221 332 -28 54 -38 92 -51 185 -9 64 -19 120 -23 125 -3 4
-39 -41 -80 -100 -116 -171 -494 -543 -551 -543 -16 0 -9 44 14 95 13 28 54
99 90 158 37 59 83 139 102 177 68 136 179 494 200 649 l7 55 -73 -91 c-405
-499 -659 -756 -956 -972 -73 -53 -143 -77 -143 -50 0 8 55 63 123 124 324
291 500 505 796 965 158 245 440 659 495 724 52 63 81 61 114 -6z m-1177 -164
c4 -76 7 -219 8 -317 1 -165 0 -178 -16 -173 -10 2 -88 24 -173 47 -85 23
-158 45 -162 49 -7 6 159 322 239 452 35 58 69 91 88 85 6 -2 13 -63 16 -143z
m3095 -2959 c53 -22 115 -86 146 -150 59 -125 29 -278 -70 -352 -144 -109
-341 -68 -427 89 -27 48 -30 62 -30 143 0 69 5 99 20 130 65 131 229 194 361
140z m-2692 -7 c7 -13 46 -111 86 -218 90 -243 111 -286 145 -294 61 -16 0
-40 -85 -34 -39 3 -45 6 -47 28 -1 14 -15 59 -31 100 l-29 75 -68 0 -68 0 -23
-65 c-29 -81 -29 -100 -4 -107 46 -12 15 -23 -65 -23 -79 0 -109 11 -67 24 28
9 46 48 132 287 44 123 82 230 85 237 7 19 23 14 39 -10z m572 9 c11 -10 -10
-110 -23 -115 -7 -2 -13 3 -13 11 0 8 -9 26 -21 41 -25 32 -87 37 -111 9 -43
-51 -25 -96 73 -183 102 -91 130 -160 93 -231 -33 -66 -155 -114 -227 -90 -46
16 -60 48 -46 107 14 53 24 56 33 9 9 -45 57 -78 101 -70 38 7 75 42 75 72 0
37 -16 61 -102 151 -105 110 -126 159 -93 222 15 29 53 54 105 71 29 9 146 7
156 -4z m307 -2 l188 0 -3 -54 c-3 -63 -16 -73 -40 -31 -16 28 -21 30 -78 30
l-60 0 0 -217 c0 -120 4 -223 8 -230 4 -6 20 -17 35 -22 16 -6 25 -15 22 -21
-7 -11 -163 -14 -189 -4 -23 9 -19 21 9 28 l25 6 0 230 0 230 -60 0 c-53 0
-64 -3 -86 -27 -35 -38 -48 -20 -32 46 12 51 12 52 42 44 17 -4 116 -8 219 -8z
m917 -7 c0 -50 -13 -98 -26 -98 -8 0 -14 5 -14 12 0 28 -33 48 -82 48 l-48 0
0 -95 0 -95 48 0 c27 0 57 6 68 15 33 25 44 18 44 -27 0 -82 -23 -115 -45 -65
-8 18 -19 23 -62 25 l-53 3 0 -95 c0 -87 2 -96 22 -110 47 -33 138 -5 138 42
0 7 6 12 13 9 13 -4 11 -54 -3 -93 -9 -22 -13 -22 -149 -23 -144 -1 -173 7
-132 35 20 15 21 22 21 249 l0 233 -32 11 c-57 20 -17 30 132 34 80 1 148 4
153 5 4 1 7 -8 7 -20z m1518 10 l84 -11 -7 -61 c-8 -78 -14 -98 -28 -93 -6 2
-14 16 -18 31 -17 61 -72 96 -152 96 -74 0 -133 -32 -172 -95 -26 -42 -29 -56
-29 -119 1 -80 18 -127 66 -181 87 -100 229 -105 291 -10 12 19 26 35 30 35
16 0 19 -31 6 -72 -13 -41 -17 -44 -74 -60 -33 -9 -94 -17 -136 -17 -63 -1
-84 3 -130 26 -60 31 -112 92 -129 151 -16 60 -12 156 10 214 57 152 164 198
388 166z m-2028 -8 c8 -5 12 -10 10 -12 -3 -2 -14 -8 -25 -14 -19 -11 -20 -23
-23 -219 -2 -203 -2 -209 20 -232 35 -37 92 -32 134 12 52 55 60 49 48 -39
l-7 -46 -156 0 c-86 0 -163 4 -171 10 -8 5 -12 10 -10 12 3 2 14 8 25 14 19
11 20 23 23 247 l2 235 -31 11 c-17 6 -28 15 -24 21 8 13 165 13 185 0z m848
-14 c86 -45 94 -151 18 -251 l-24 -31 63 -85 c65 -87 109 -126 153 -138 56
-15 27 -41 -46 -41 -60 0 -107 37 -185 146 -46 65 -54 71 -99 79 l-38 7 0 -79
c0 -83 10 -109 44 -115 11 -1 21 -9 24 -15 3 -10 -21 -13 -97 -13 -79 0 -101
3 -101 14 0 7 9 16 20 19 19 5 20 14 20 245 l0 240 -25 6 c-14 4 -25 14 -25
22 0 15 15 16 133 12 98 -3 140 -9 165 -22z"/>
<path d="M4528 560 c-49 -26 -75 -62 -95 -129 -43 -149 51 -316 185 -328 162
-14 254 185 167 364 -50 102 -162 143 -257 93z"/>
<path d="M1982 403 c-12 -38 -22 -72 -22 -76 0 -4 21 -7 46 -7 39 0 45 3 40
18 -3 9 -14 44 -23 76 l-18 59 -23 -70z"/>
<path d="M4023 574 c-9 -4 -13 -38 -13 -119 0 -94 3 -114 16 -119 76 -29 138
43 120 139 -12 62 -81 117 -123 99z"/>
<path d="M650 3050 c-135 -38 -336 -92 -447 -121 -166 -43 -203 -55 -203 -70
0 -16 4 -16 73 2 57 14 740 174 835 194 28 7 33 66 5 64 -10 0 -128 -31 -263
-69z"/>
<path d="M705 2799 c-246 -37 -597 -79 -658 -79 -42 0 -47 -2 -47 -23 l0 -23
88 13 c113 17 608 71 737 80 100 8 100 8 103 36 4 33 22 33 -223 -4z"/>
</g>
</svg>
